<?xml version="1.0" encoding="UTF-8"?>
<svg version="1.1" xmlns="http://www.w3.org/2000/svg" width="512" height="512">
<path d="M0 0 C1.11274144 -0.00644889 2.22548289 -0.01289778 3.37194377 -0.0195421 C5.19789436 -0.01489629 5.19789436 -0.01489629 7.06073284 -0.01015663 C9.00652871 -0.0169533 9.00652871 -0.0169533 10.99163359 -0.02388728 C14.590618 -0.03612307 18.1895095 -0.03585614 21.78850996 -0.03349853 C25.6706982 -0.0330905 29.55285659 -0.04412811 33.43503094 -0.05361366 C41.0404224 -0.07022786 48.64578285 -0.0757234 56.25119094 -0.07683842 C62.43331168 -0.0777887 68.6154222 -0.08189803 74.79753971 -0.08823967 C92.32481289 -0.10585331 109.85206157 -0.11507836 127.37934367 -0.11357872 C128.32427946 -0.11349881 129.26921525 -0.1134189 130.24278545 -0.11333656 C131.18887496 -0.1132548 132.13496447 -0.11317304 133.10972335 -0.1130888 C148.44264392 -0.11227589 163.77546626 -0.1314145 179.10835842 -0.1596133 C194.85189512 -0.18833884 210.5953839 -0.20215377 226.33894747 -0.20042574 C235.17782914 -0.19976172 244.01660783 -0.20525929 252.85546589 -0.22678185 C260.38113367 -0.24498932 267.90665181 -0.24934458 275.43233208 -0.235763 C279.27134284 -0.22923108 283.11006646 -0.22912394 286.94904995 -0.2464695 C291.11287855 -0.26508914 295.2760418 -0.25265164 299.43988323 -0.23720741 C300.65049146 -0.24749454 301.86109969 -0.25778167 303.10839301 -0.26838052 C311.06377952 -0.20308273 316.5315253 0.83156007 322.682971 6.22211266 C330.52321412 15.69417671 330.59957243 24.26234897 330.5032835 36.19476891 C330.49877178 37.26017906 330.49426006 38.32558922 330.48961163 39.42328453 C330.47790137 42.03467181 330.46150074 44.64594015 330.4407835 47.25726891 C331.6053709 47.24679527 332.76995831 47.23632164 333.96983624 47.22553062 C338.32527324 47.18910057 342.68069699 47.16628532 347.03624249 47.14740562 C348.91484632 47.13740017 350.79343479 47.12379158 352.67198467 47.10639 C355.38532098 47.0819001 358.09844988 47.070731 360.81187725 47.06195641 C362.05462666 47.04647255 362.05462666 47.04647255 363.32248211 47.03067589 C371.52063641 47.02912814 378.93752041 47.91014148 385.4407835 53.25726891 C393.27762277 61.15048831 394.5736854 68.6360862 394.55430889 79.66132164 C394.55445492 80.36460091 394.55460094 81.06788017 394.5547514 81.79247093 C394.55406076 84.09196742 394.5463086 86.39138051 394.53843975 88.69086266 C394.53657255 90.29511534 394.53515007 91.8993686 394.53415203 93.50362206 C394.53035066 97.70722618 394.5205409 101.91079524 394.50944805 106.1143856 C394.49918256 110.41135751 394.49464344 114.70833513 394.48961163 119.00531578 C394.47891631 127.4226495 394.46186874 135.83995483 394.4407835 144.25726891 C394.99931011 144.24838646 395.55783672 144.23950401 396.13328838 144.2303524 C401.97363784 144.14150267 407.81379367 144.08137946 413.65465069 144.03754234 C415.83116238 144.01749127 418.00762064 143.9902432 420.18394756 143.95551109 C423.32177743 143.90670679 426.45889185 143.88423453 429.5970335 143.86664391 C430.56193707 143.84599876 431.52684063 143.82535362 432.5209837 143.80408287 C439.82695338 143.80168453 445.14012965 145.36488408 450.682971 150.22211266 C451.22179913 150.87308922 451.76062725 151.52406578 452.3157835 152.19476891 C452.87008038 152.84316734 453.42437725 153.49156578 453.995471 154.15961266 C456.9172253 158.40010471 457.69162773 162.08933878 457.70820904 167.19557762 C457.72100399 168.9807605 457.72100399 168.9807605 457.73405743 170.80200768 C457.73315105 172.09926781 457.73224468 173.39652794 457.73131084 174.73309898 C457.73729848 176.11985701 457.74410457 177.50661171 457.75166607 178.89336205 C457.76931061 182.65383165 457.77402082 186.41421019 457.77529764 190.17471719 C457.77672081 192.52648502 457.78099357 194.87822981 457.78629208 197.22999191 C457.80478806 205.44132897 457.81296333 213.65260116 457.81138897 221.86395836 C457.81018806 229.5069625 457.83128145 237.14968402 457.8628763 244.79261667 C457.88906727 251.36350223 457.89975507 257.93429565 457.89847815 264.50523299 C457.89796929 268.42573435 457.90360984 272.34598454 457.92483425 276.26643372 C457.94426417 279.95606954 457.94430917 283.64521583 457.92980099 287.33486938 C457.92672832 289.32525198 457.94335651 291.31563487 457.96068096 293.30594444 C457.90311567 301.53062864 457.04960884 307.13904674 451.47593975 313.49945641 C450.82496319 314.03828453 450.17398663 314.57711266 449.5032835 315.13226891 C448.85488506 315.68656578 448.20648663 316.24086266 447.53843975 316.81195641 C443.17569462 319.81794467 439.41859968 320.50780417 434.16761208 320.51453781 C432.89565103 320.5209867 431.62368999 320.5274356 430.31318468 320.53407991 C428.9039706 320.53113773 427.4947569 320.5280023 426.08554363 320.52469444 C424.58677426 320.52843093 423.08800684 320.53303245 421.58924252 320.53842509 C417.46946809 320.55067016 413.34977478 320.55039287 409.22998631 320.54803634 C404.78754396 320.54762857 400.34512776 320.55866334 395.90269756 320.56815147 C387.19975063 320.58476939 378.49683078 320.59026133 369.79386931 320.59137623 C362.72260324 320.59232608 355.65134613 320.59643321 348.58008289 320.60277748 C328.54235894 320.62039002 308.50465641 320.62961603 288.46692466 320.62811653 C287.38652318 320.62803662 286.30612169 320.62795671 285.19298077 320.62787437 C283.57040615 320.62775173 283.57040615 320.62775173 281.91505224 320.62762661 C264.37111599 320.62681312 246.82726548 320.64596658 229.28335404 320.67415111 C211.27981273 320.70284651 193.2763133 320.71669333 175.27274853 320.71496356 C165.16079466 320.71429862 155.04893073 320.71983636 144.93699741 320.74131966 C136.33048791 320.75948725 127.72410914 320.76391514 119.11758881 320.75030081 C114.72416387 320.74374945 110.33099008 320.74373175 105.93758869 320.76100731 C101.91892256 320.77664737 97.90070859 320.77396828 93.8820541 320.75643905 C92.4252087 320.75334906 90.9683303 320.75707609 89.51152378 320.7681592 C87.5370988 320.78219021 85.56253679 320.76935329 83.58811378 320.75504684 C81.94039589 320.75569895 81.94039589 320.75569895 80.25939077 320.75636423 C76.76708965 320.13797685 75.6126354 319.00366095 73.4407835 316.25726891 C72.06329296 312.7676262 72.32963521 311.53249324 73.7532835 308.00726891 C75.4407835 305.25726891 75.4407835 305.25726891 77.4407835 304.25726891 C79.39587266 304.21979116 81.3511042 304.18528724 83.30650616 304.17181969 C91.60288057 304.26410722 91.60288057 304.26410722 98.5657835 300.38226891 C100.07778442 298.45287443 100.07778442 298.45287443 101.4407835 296.25726891 C102.04019756 295.44773766 102.63961163 294.63820641 103.25718975 293.80414391 C106.70683479 288.87813721 108.95915777 284.16609767 110.64781475 278.39008141 C110.98917461 277.2365316 111.33053448 276.0829818 111.68223858 274.89447594 C111.9325584 274.02419762 112.18287823 273.1539193 112.4407835 272.25726891 C111.84001743 272.26095608 111.23925137 272.26464325 110.62028027 272.26844215 C95.98005387 272.35690643 81.33984331 272.42303349 66.69941235 272.46451759 C59.61928978 272.48511398 52.53934598 272.51317819 45.45933819 272.55902672 C38.62530101 272.60326117 31.7914496 272.62641454 24.95727825 272.63677788 C22.3514034 272.64416224 19.74553858 272.65858213 17.13974285 272.68018913 C13.48661212 272.70927277 9.83424597 272.71322265 6.18101788 272.71137047 C5.10639294 272.72575157 4.031768 272.74013268 2.92457867 272.75494957 C-4.65868627 272.71341244 -9.94410565 271.42521447 -15.801404 266.29242516 C-22.70961042 257.94638629 -23.71213587 250.6297979 -23.69292927 240.01646996 C-23.69519482 239.09481067 -23.69746038 238.17315138 -23.69979459 237.22356302 C-23.70611691 234.13997757 -23.70530636 231.05643628 -23.70448017 227.97284508 C-23.70747276 225.75998948 -23.71087553 223.5471344 -23.71465778 221.33428001 C-23.7234918 215.32595538 -23.72583565 209.31764499 -23.72647357 203.30931449 C-23.72718441 199.55464769 -23.72931939 195.79998451 -23.73197079 192.0453186 C-23.74074482 179.62007564 -23.74539075 167.19483961 -23.74464031 154.76959392 C-23.74460036 154.10028985 -23.7445604 153.43098578 -23.74451923 152.74139977 C-23.74447835 152.07127463 -23.74443747 151.40114949 -23.74439535 150.71071754 C-23.74398901 139.85339972 -23.75355661 128.9961166 -23.7676576 118.13880881 C-23.78203572 106.97970221 -23.78874403 95.8206083 -23.78806382 84.66149122 C-23.78780897 78.40088714 -23.79065339 72.14032235 -23.80124187 65.87972641 C-23.81093031 59.99052759 -23.81099686 54.10140553 -23.80372524 48.21220398 C-23.80268033 46.05353877 -23.80503672 43.89486876 -23.8110857 41.73621178 C-23.8188218 38.78372425 -23.81415002 35.83150076 -23.80645466 32.87901878 C-23.81159822 32.02997276 -23.81674178 31.18092674 -23.82204121 30.30615205 C-23.76994582 21.22709736 -22.61360418 13.27555381 -15.9185915 6.62836266 C-10.9590533 2.15399667 -6.81274722 0.01000042 0 0 Z M194.4407835 272.25726891 C194.90634054 278.65867826 196.58790186 283.52496719 199.4407835 289.25726891 C199.7707835 289.25726891 200.1007835 289.25726891 200.4407835 289.25726891 C200.4407835 283.64726891 200.4407835 278.03726891 200.4407835 272.25726891 C198.4607835 272.25726891 196.4807835 272.25726891 194.4407835 272.25726891 Z " fill="#DAE8ED" transform="translate(38.55921649932861,95.74273109436035)"/>
<path d="M0 0 C3.8151716 -0.02770828 7.63034848 -0.04687145 11.44558334 -0.06340981 C13.18203018 -0.072551 14.91846315 -0.08509183 16.65485764 -0.1013813 C38.824047 -0.303595 38.824047 -0.303595 46.57704544 6.07109261 C54.41388471 13.96431201 55.70994734 21.4499099 55.69057083 32.47514534 C55.69071686 33.17842461 55.69086288 33.88170387 55.69101334 34.60629463 C55.6903227 36.90579112 55.68257054 39.20520421 55.67470169 41.50468636 C55.67283449 43.10893904 55.67141201 44.7131923 55.67041397 46.31744576 C55.6666126 50.52104988 55.65680284 54.72461894 55.64570999 58.9282093 C55.6354445 63.22518121 55.63090538 67.52215883 55.62587357 71.81913948 C55.61517825 80.2364732 55.59813068 88.65377853 55.57704544 97.07109261 C56.13557205 97.06221016 56.69409866 97.05332771 57.26955032 97.0441761 C63.10989978 96.95532637 68.95005561 96.89520316 74.79091263 96.85136604 C76.96742432 96.83131497 79.14388258 96.8040669 81.3202095 96.76933479 C84.45803937 96.72053049 87.59515379 96.69805823 90.73329544 96.68046761 C91.69819901 96.65982246 92.66310257 96.63917732 93.65724564 96.61790657 C100.96321532 96.61550823 106.27639159 98.17870778 111.81923294 103.03593636 C112.35806107 103.68691292 112.89688919 104.33788948 113.45204544 105.00859261 C114.28349075 105.98119026 114.28349075 105.98119026 115.13173294 106.97343636 C118.05348724 111.21392841 118.82788967 114.90316248 118.84447098 120.00940132 C118.85726593 121.7945842 118.85726593 121.7945842 118.87031937 123.61583138 C118.86941299 124.91309151 118.86850662 126.21035164 118.86757278 127.54692268 C118.87356042 128.93368071 118.88036651 130.32043541 118.88792801 131.70718575 C118.90557255 135.46765535 118.91028276 139.22803389 118.91155958 142.98854089 C118.91298275 145.34030872 118.91725551 147.69205351 118.92255402 150.04381561 C118.94105 158.25515267 118.94922527 166.46642486 118.94765091 174.67778206 C118.94645 182.3207862 118.96754339 189.96350772 118.99913824 197.60644037 C119.02532921 204.17732593 119.03601701 210.74811935 119.03474009 217.31905669 C119.03423123 221.23955805 119.03987178 225.15980824 119.06109619 229.08025742 C119.08052611 232.76989324 119.08057111 236.45903953 119.06606293 240.14869308 C119.06299026 242.13907568 119.07961845 244.12945857 119.0969429 246.11976814 C119.03937761 254.34445234 118.18587078 259.95287044 112.61220169 266.31328011 C111.96122513 266.85210823 111.31024857 267.39093636 110.63954544 267.94609261 C109.991147 268.50038948 109.34274857 269.05468636 108.67470169 269.62578011 C103.44404018 273.22977407 98.78538459 273.36118187 92.63959122 273.33851814 C91.73849855 273.34304926 90.83740588 273.34758037 89.90900737 273.35224879 C86.88904022 273.36491085 83.869253 273.36327124 80.84926224 273.36161995 C78.6841903 273.36760408 76.51912049 273.37440936 74.3540535 273.38197517 C68.47175723 273.3996544 62.58951913 273.40433138 56.70719886 273.40560675 C51.79668717 273.40750556 46.88618903 273.41486293 41.97568256 273.42195094 C30.38975291 273.4382399 18.80385436 273.44311943 7.21791458 273.44169807 C-4.73304131 273.44049658 -16.68381663 273.46159887 -28.63472682 273.4931854 C-38.89559825 273.51933859 -49.15641068 273.53006576 -59.41731519 273.52878726 C-65.54548849 273.52827733 -71.67350136 273.53397751 -77.80164146 273.55514336 C-83.56614221 273.57450937 -89.33032919 273.57466117 -95.094841 273.56011009 C-97.20877732 273.55801886 -99.32273319 273.56274153 -101.43663597 273.57483101 C-104.32630869 273.59028479 -107.21489971 273.58097415 -110.10454941 273.56556892 C-110.93773565 273.57585605 -111.77092189 273.58614318 -112.62935621 273.59674203 C-119.52637892 273.51569183 -124.67911975 271.46650395 -129.88389206 266.92265511 C-138.41331431 257.00067412 -138.59353211 247.04335204 -138.53216171 234.38051033 C-138.53175485 233.45881133 -138.53134798 232.53711232 -138.53092879 231.58748305 C-138.52825149 228.52779133 -138.51825767 225.46817049 -138.50815964 222.40849495 C-138.50456006 220.20328009 -138.50135596 217.99806456 -138.49851608 215.79284859 C-138.4891774 209.82406468 -138.4728516 203.85532123 -138.45414567 197.88655996 C-138.44248051 194.15533404 -138.43182203 190.42410641 -138.42140388 186.69287682 C-138.39010837 175.67994882 -138.35525292 164.66704171 -138.3136181 153.65414772 C-138.306024 151.6446919 -138.29844113 149.63523603 -138.29087448 147.62578011 C-138.28836761 146.96064528 -138.28586073 146.29551046 -138.28327789 145.61022003 C-138.24307434 134.82040311 -138.21993009 124.03062028 -138.20389584 113.24074309 C-138.18713641 102.14360113 -138.15509692 91.04657291 -138.10901183 79.94951212 C-138.08353083 73.72643333 -138.06458249 67.50349682 -138.06163597 61.28036308 C-138.05848347 55.43119502 -138.03649641 49.58239767 -138.00008011 43.73334503 C-137.98997222 41.58879205 -137.9866334 39.4441947 -137.99061012 37.29962158 C-137.99500348 34.36855834 -137.97485126 31.43863457 -137.94866562 28.5077076 C-137.95574392 27.66236816 -137.96282221 26.81702872 -137.97011501 25.94607294 C-137.86468222 19.01125911 -135.85735424 13.81469153 -131.23936081 8.61015511 C-130.49557175 7.97851448 -129.75178268 7.34687386 -128.98545456 6.69609261 C-128.24424362 6.04898323 -127.50303268 5.40187386 -126.73936081 4.73515511 C-121.15590902 0.7241088 -116.05751073 0.7674253 -109.40830612 0.75224495 C-108.40054123 0.74219933 -107.39277634 0.7321537 -106.35447311 0.72180367 C-103.00751407 0.69083682 -99.66063726 0.67385696 -96.31357956 0.65703011 C-93.95271283 0.638274 -91.5918525 0.61869747 -89.23099899 0.5983448 C-82.97992062 0.54687559 -76.72881923 0.50742514 -70.47764206 0.47020149 C-64.27966302 0.43092721 -58.08179 0.37915137 -51.88389206 0.32890511 C-41.09672116 0.24355578 -30.30955387 0.17611694 -19.52217484 0.12342644 C-13.01468483 0.09151356 -6.50737044 0.0506508 0 0 Z " fill="#33658A" transform="translate(377.4229545593262,142.92890739440918)"/>
<path d="M0 0 C1.11274144 -0.00644889 2.22548289 -0.01289778 3.37194377 -0.0195421 C5.19789436 -0.01489629 5.19789436 -0.01489629 7.06073284 -0.01015663 C9.00652871 -0.0169533 9.00652871 -0.0169533 10.99163359 -0.02388728 C14.590618 -0.03612307 18.1895095 -0.03585614 21.78850996 -0.03349853 C25.6706982 -0.0330905 29.55285659 -0.04412811 33.43503094 -0.05361366 C41.0404224 -0.07022786 48.64578285 -0.0757234 56.25119094 -0.07683842 C62.43331168 -0.0777887 68.6154222 -0.08189803 74.79753971 -0.08823967 C92.32481289 -0.10585331 109.85206157 -0.11507836 127.37934367 -0.11357872 C128.32427946 -0.11349881 129.26921525 -0.1134189 130.24278545 -0.11333656 C131.18887496 -0.1132548 132.13496447 -0.11317304 133.10972335 -0.1130888 C148.44264392 -0.11227589 163.77546626 -0.1314145 179.10835842 -0.1596133 C194.85189512 -0.18833884 210.5953839 -0.20215377 226.33894747 -0.20042574 C235.17782914 -0.19976172 244.01660783 -0.20525929 252.85546589 -0.22678185 C260.38113367 -0.24498932 267.90665181 -0.24934458 275.43233208 -0.235763 C279.27134284 -0.22923108 283.11006646 -0.22912394 286.94904995 -0.2464695 C291.11287855 -0.26508914 295.2760418 -0.25265164 299.43988323 -0.23720741 C300.65049146 -0.24749454 301.86109969 -0.25778167 303.10839301 -0.26838052 C311.06377952 -0.20308273 316.5315253 0.83156007 322.682971 6.22211266 C330.49096481 15.65521523 330.61025638 24.24318591 330.5657835 36.13226891 C330.56965069 37.18930016 330.57351788 38.24633141 330.57750225 39.33539391 C330.57556866 40.83972984 330.57556866 40.83972984 330.573596 42.37445641 C330.57246807 43.28824059 330.57134014 44.20202477 330.57017803 45.14349937 C330.4407835 47.25726891 330.4407835 47.25726891 329.4407835 48.25726891 C326.74423497 48.33046512 324.07386892 48.34969428 321.3782835 48.31976891 C320.24036358 48.31300133 320.24036358 48.31300133 319.07945538 48.30609703 C317.19986479 48.29427571 315.32031451 48.27633968 313.4407835 48.25726891 C313.42096416 47.4550692 313.40114483 46.65286949 313.38072491 45.8263607 C313.28558855 42.19882714 313.1758627 38.57187846 313.0657835 34.94476891 C313.01937725 33.05081383 313.01937725 33.05081383 312.9720335 31.11859703 C312.93336163 29.91010094 312.89468975 28.70160484 312.854846 27.45648766 C312.80771465 25.78332481 312.80771465 25.78332481 312.75963116 24.0763607 C312.6355345 21.05358105 312.6355345 21.05358105 310.4407835 18.25726891 C307.42238336 17.25113553 305.41252908 17.12908165 302.25704575 17.12304783 C301.17717016 17.11858998 300.09729458 17.11413214 298.98469549 17.10953921 C297.79385947 17.10972357 296.60302345 17.10990794 295.37610149 17.11009789 C294.1145428 17.1064212 292.85298411 17.10274451 291.55319637 17.09895641 C288.04460897 17.08893324 284.53603868 17.08521913 281.027439 17.0825671 C277.2461864 17.07866514 273.46494737 17.06908692 269.68370342 17.06035423 C260.55026695 17.0405897 251.41682936 17.03052493 242.28337684 17.02162644 C237.98480574 17.01724468 233.68623587 17.01187769 229.38766575 17.00663757 C215.10372867 16.98962748 200.81979236 16.97513151 186.53584671 16.96788883 C182.82894738 16.96597888 179.12204805 16.96405855 175.41514874 16.96210289 C174.49379452 16.96161915 173.5724403 16.96113541 172.62316626 16.96063701 C157.68511159 16.9523299 142.74713683 16.92698054 127.80911709 16.89452221 C112.48151297 16.86148805 97.15394953 16.84344349 81.82630962 16.84024459 C73.21667204 16.83807642 64.60715106 16.82928269 55.9975481 16.80378342 C48.66825452 16.78212635 41.33910588 16.77400136 34.00978393 16.7837502 C30.26848693 16.78830911 26.5274893 16.78631702 22.78623295 16.76698875 C18.73475872 16.74623792 14.68395462 16.75629617 10.63244915 16.76952171 C9.44384385 16.75855247 8.25523855 16.74758322 7.03061491 16.73628157 C5.94813158 16.74486247 4.86564825 16.75344336 3.7503624 16.76228428 C2.81483884 16.76130747 1.87931528 16.76033066 0.91544253 16.75932425 C-2.33902229 17.41417946 -3.5338039 18.67560999 -5.5592165 21.25726891 C-6.16612751 24.5131403 -6.16612751 24.5131403 -6.07819843 28.23010826 C-6.08569614 28.93012459 -6.09319386 29.63014091 -6.10091877 30.35136986 C-6.12125888 32.70409083 -6.11305229 35.05585268 -6.10511494 37.40863609 C-6.113912 39.12123749 -6.12445794 40.83383066 -6.13661289 42.54641151 C-6.16434755 47.13543056 -6.16812413 51.72417792 -6.16697407 56.31326866 C-6.16951461 60.61842647 -6.1936131 64.92335773 -6.21595478 69.22846031 C-6.26872531 81.82132431 -6.28685053 94.4143142 -6.3092165 107.00726891 C-6.3917165 135.13976891 -6.4742165 163.27226891 -6.5592165 192.25726891 C62.0807835 192.25726891 130.7207835 192.25726891 201.4407835 192.25726891 C201.4407835 218.65726891 201.4407835 245.05726891 201.4407835 272.25726891 C199.1307835 272.25726891 196.8207835 272.25726891 194.4407835 272.25726891 C195.03811899 274.30094463 195.64398007 276.34212933 196.2532835 278.38226891 C196.58972881 279.51922203 196.92617413 280.65617516 197.27281475 281.82758141 C198.3450771 285.26042643 198.3450771 285.26042643 200.0189085 288.28461266 C201.57034549 291.5281389 201.99778897 294.13351114 202.3782835 297.69476891 C203.54424369 305.96932506 206.14131963 310.74140371 212.6907835 316.03461266 C214.82670469 317.52689688 216.94938857 318.50230074 219.4407835 319.25726891 C219.4407835 319.58726891 219.4407835 319.91726891 219.4407835 320.25726891 C200.99541194 320.35067264 182.55008831 320.42122863 164.10452938 320.46451759 C155.54010142 320.48515086 146.97582033 320.51328594 138.41148663 320.55902672 C130.9475958 320.59887123 123.48381133 320.62469616 116.01981711 320.63362288 C112.0669191 320.63884173 108.11432535 320.6511234 104.16152477 320.68018913 C100.44164281 320.70732079 96.72219071 320.71571862 93.0022192 320.70969963 C90.98474684 320.71132636 88.96732139 320.73286093 86.94996929 320.75494957 C85.74966076 320.74945091 84.54935223 320.74395226 83.31267071 320.73828697 C82.26920105 320.74197414 81.22573139 320.74566132 80.15064144 320.74946022 C76.73507464 320.12909105 75.57884558 318.93474154 73.4407835 316.25726891 C72.06329296 312.7676262 72.32963521 311.53249324 73.7532835 308.00726891 C75.4407835 305.25726891 75.4407835 305.25726891 77.4407835 304.25726891 C79.39587266 304.21979116 81.3511042 304.18528724 83.30650616 304.17181969 C91.60288057 304.26410722 91.60288057 304.26410722 98.5657835 300.38226891 C100.07778442 298.45287443 100.07778442 298.45287443 101.4407835 296.25726891 C102.04019756 295.44773766 102.63961163 294.63820641 103.25718975 293.80414391 C106.70683479 288.87813721 108.95915777 284.16609767 110.64781475 278.39008141 C110.98917461 277.2365316 111.33053448 276.0829818 111.68223858 274.89447594 C111.9325584 274.02419762 112.18287823 273.1539193 112.4407835 272.25726891 C111.84001743 272.26095608 111.23925137 272.26464325 110.62028027 272.26844215 C95.98005387 272.35690643 81.33984331 272.42303349 66.69941235 272.46451759 C59.61928978 272.48511398 52.53934598 272.51317819 45.45933819 272.55902672 C38.62530101 272.60326117 31.7914496 272.62641454 24.95727825 272.63677788 C22.3514034 272.64416224 19.74553858 272.65858213 17.13974285 272.68018913 C13.48661212 272.70927277 9.83424597 272.71322265 6.18101788 272.71137047 C5.10639294 272.72575157 4.031768 272.74013268 2.92457867 272.75494957 C-4.65868627 272.71341244 -9.94410565 271.42521447 -15.801404 266.29242516 C-22.70961042 257.94638629 -23.71213587 250.6297979 -23.69292927 240.01646996 C-23.69519482 239.09481067 -23.69746038 238.17315138 -23.69979459 237.22356302 C-23.70611691 234.13997757 -23.70530636 231.05643628 -23.70448017 227.97284508 C-23.70747276 225.75998948 -23.71087553 223.5471344 -23.71465778 221.33428001 C-23.7234918 215.32595538 -23.72583565 209.31764499 -23.72647357 203.30931449 C-23.72718441 199.55464769 -23.72931939 195.79998451 -23.73197079 192.0453186 C-23.74074482 179.62007564 -23.74539075 167.19483961 -23.74464031 154.76959392 C-23.74460036 154.10028985 -23.7445604 153.43098578 -23.74451923 152.74139977 C-23.74447835 152.07127463 -23.74443747 151.40114949 -23.74439535 150.71071754 C-23.74398901 139.85339972 -23.75355661 128.9961166 -23.7676576 118.13880881 C-23.78203572 106.97970221 -23.78874403 95.8206083 -23.78806382 84.66149122 C-23.78780897 78.40088714 -23.79065339 72.14032235 -23.80124187 65.87972641 C-23.81093031 59.99052759 -23.81099686 54.10140553 -23.80372524 48.21220398 C-23.80268033 46.05353877 -23.80503672 43.89486876 -23.8110857 41.73621178 C-23.8188218 38.78372425 -23.81415002 35.83150076 -23.80645466 32.87901878 C-23.81159822 32.02997276 -23.81674178 31.18092674 -23.82204121 30.30615205 C-23.76994582 21.22709736 -22.61360418 13.27555381 -15.9185915 6.62836266 C-10.9590533 2.15399667 -6.81274722 0.01000042 0 0 Z " fill="#32B8EF" transform="translate(38.55921649932861,95.74273109436035)"/>
<path d="M0 0 C52.8 0 105.6 0 160 0 C160 21.12 160 42.24 160 64 C155.38 64.33 150.76 64.66 146 65 C138.74099009 67.5559894 133.52053962 72.15786913 129.92959595 79.05632019 C128.64250979 83.13203669 128.69185582 86.9458046 128.68115234 91.1965332 C128.67099909 92.12888133 128.66084583 93.06122946 128.6503849 94.02183056 C128.61981722 97.031477 128.60261203 100.04102915 128.5859375 103.05078125 C128.56899809 104.91223969 128.55118091 106.77369035 128.5324707 108.63513184 C128.46934316 115.52749867 128.42319841 122.4200126 128.375 129.3125 C128.25125 144.719375 128.1275 160.12625 128 176 C85.76 176 43.52 176 0 176 C0 117.92 0 59.84 0 0 Z " fill="#DAE8ED" transform="translate(256,176)"/>
<path d="M0 0 C3.8151716 -0.02770828 7.63034848 -0.04687145 11.44558334 -0.06340981 C13.18203018 -0.072551 14.91846315 -0.08509183 16.65485764 -0.1013813 C38.824047 -0.303595 38.824047 -0.303595 46.57704544 6.07109261 C54.41388471 13.96431201 55.70994734 21.4499099 55.69057083 32.47514534 C55.69071686 33.17842461 55.69086288 33.88170387 55.69101334 34.60629463 C55.6903227 36.90579112 55.68257054 39.20520421 55.67470169 41.50468636 C55.67283449 43.10893904 55.67141201 44.7131923 55.67041397 46.31744576 C55.6666126 50.52104988 55.65680284 54.72461894 55.64570999 58.9282093 C55.6354445 63.22518121 55.63090538 67.52215883 55.62587357 71.81913948 C55.61517825 80.236475 55.59760094 88.65377539 55.57704544 97.07109261 C49.96704544 97.07109261 44.35704544 97.07109261 38.57704544 97.07109261 C38.57704544 75.95109261 38.57704544 54.83109261 38.57704544 33.07109261 C-14.22295456 33.07109261 -67.02295456 33.07109261 -121.42295456 33.07109261 C-121.42295456 91.15109261 -121.42295456 149.23109261 -121.42295456 209.07109261 C-79.18295456 209.07109261 -36.94295456 209.07109261 6.57704544 209.07109261 C6.90704544 223.92109261 7.23704544 238.77109261 7.57704544 254.07109261 C13.03827043 265.08017336 13.03827043 265.08017336 22.51454544 271.44609261 C23.19517044 271.65234261 23.87579544 271.85859261 24.57704544 272.07109261 C24.57704544 272.40109261 24.57704544 272.73109261 24.57704544 273.07109261 C5.93998882 273.16461667 -12.69702006 273.23511133 -31.33426285 273.27834129 C-39.98825561 273.29894903 -48.64210238 273.32703532 -57.29600143 273.37285042 C-64.84050232 273.41277308 -72.38489747 273.43853842 -79.92950106 273.44744658 C-83.92276764 273.45265218 -87.91573176 273.46484959 -91.90890121 273.49401283 C-95.67147464 273.52126799 -99.43362248 273.52951741 -103.19628525 273.52352333 C-105.2273007 273.5251395 -107.25827034 273.54660925 -109.2891655 273.56877327 C-117.7748284 273.53061001 -123.32835672 272.64574151 -129.88389206 266.92265511 C-138.41331431 257.00067412 -138.59353211 247.04335204 -138.53216171 234.38051033 C-138.53175485 233.45881133 -138.53134798 232.53711232 -138.53092879 231.58748305 C-138.52825149 228.52779133 -138.51825767 225.46817049 -138.50815964 222.40849495 C-138.50456006 220.20328009 -138.50135596 217.99806456 -138.49851608 215.79284859 C-138.4891774 209.82406468 -138.4728516 203.85532123 -138.45414567 197.88655996 C-138.44248051 194.15533404 -138.43182203 190.42410641 -138.42140388 186.69287682 C-138.39010837 175.67994882 -138.35525292 164.66704171 -138.3136181 153.65414772 C-138.306024 151.6446919 -138.29844113 149.63523603 -138.29087448 147.62578011 C-138.28836761 146.96064528 -138.28586073 146.29551046 -138.28327789 145.61022003 C-138.24307434 134.82040311 -138.21993009 124.03062028 -138.20389584 113.24074309 C-138.18713641 102.14360113 -138.15509692 91.04657291 -138.10901183 79.94951212 C-138.08353083 73.72643333 -138.06458249 67.50349682 -138.06163597 61.28036308 C-138.05848347 55.43119502 -138.03649641 49.58239767 -138.00008011 43.73334503 C-137.98997222 41.58879205 -137.9866334 39.4441947 -137.99061012 37.29962158 C-137.99500348 34.36855834 -137.97485126 31.43863457 -137.94866562 28.5077076 C-137.95574392 27.66236816 -137.96282221 26.81702872 -137.97011501 25.94607294 C-137.86468222 19.01125911 -135.85735424 13.81469153 -131.23936081 8.61015511 C-130.49557175 7.97851448 -129.75178268 7.34687386 -128.98545456 6.69609261 C-128.24424362 6.04898323 -127.50303268 5.40187386 -126.73936081 4.73515511 C-121.15590902 0.7241088 -116.05751073 0.7674253 -109.40830612 0.75224495 C-108.40054123 0.74219933 -107.39277634 0.7321537 -106.35447311 0.72180367 C-103.00751407 0.69083682 -99.66063726 0.67385696 -96.31357956 0.65703011 C-93.95271283 0.638274 -91.5918525 0.61869747 -89.23099899 0.5983448 C-82.97992062 0.54687559 -76.72881923 0.50742514 -70.47764206 0.47020149 C-64.27966302 0.43092721 -58.08179 0.37915137 -51.88389206 0.32890511 C-41.09672116 0.24355578 -30.30955387 0.17611694 -19.52217484 0.12342644 C-13.01468483 0.09151356 -6.50737044 0.0506508 0 0 Z " fill="#FE6B6B" transform="translate(377.4229545593262,142.92890739440918)"/>
<path d="M0 0 C26.4 0 52.8 0 80 0 C80 36.96 80 73.92 80 112 C53.6 112 27.2 112 0 112 C0 75.04 0 38.08 0 0 Z " fill="#DAE8ED" transform="translate(400,272)"/>
<path d="M0 0 C0.74446381 0.00359528 1.48892761 0.00719055 2.25595093 0.01089478 C3.0363826 0.01074875 3.81681427 0.01060272 4.62089539 0.01045227 C7.21273534 0.01115158 9.80450432 0.01894481 12.39633179 0.02676392 C14.18852194 0.02862803 15.9807126 0.03005196 17.77290344 0.03105164 C22.49938351 0.03487733 27.22583305 0.04470805 31.95230103 0.05575562 C36.77153104 0.06596863 41.59076596 0.07054902 46.41000366 0.07559204 C55.87290773 0.08633027 65.3357891 0.10340731 74.79867554 0.12442017 C74.99996567 0.67024246 75.2012558 1.21606476 75.40864563 1.77842712 C75.80848412 2.8552198 75.80848412 2.8552198 76.21640015 3.95376587 C76.47956528 4.66458817 76.74273041 5.37541046 77.01387024 6.10777283 C77.98030507 8.59113811 79.15634754 10.93625618 80.36117554 13.31192017 C82.33019439 17.5253861 83.26841616 21.26465753 83.86117554 25.87442017 C84.92198772 34.02338648 87.61676297 38.70355872 94.04867554 43.90176392 C96.18459672 45.39404814 98.3072806 46.369452 100.79867554 47.12442017 C100.79867554 47.45442017 100.79867554 47.78442017 100.79867554 48.12442017 C82.35330398 48.2178239 63.90798035 48.28837989 45.46242142 48.33166885 C36.89799346 48.35230212 28.33371236 48.3804372 19.76937866 48.42617798 C12.30548784 48.46602249 4.84170337 48.49184742 -2.62229085 48.50077415 C-6.57518887 48.50599299 -10.52778261 48.51827466 -14.48058319 48.54734039 C-18.20046516 48.57447205 -21.91991725 48.58286988 -25.63988876 48.57685089 C-27.65736113 48.57847762 -29.67478658 48.60001219 -31.69213867 48.62210083 C-32.8924472 48.61660217 -34.09275574 48.61110352 -35.32943726 48.60543823 C-36.89464174 48.61096899 -36.89464174 48.61096899 -38.49146652 48.61661148 C-41.90703332 47.99624231 -43.06326238 46.8018928 -45.20132446 44.12442017 C-46.57881501 40.63477746 -46.31247275 39.39964451 -44.88882446 35.87442017 C-43.20132446 33.12442017 -43.20132446 33.12442017 -41.20132446 32.12442017 C-39.2462353 32.08694242 -37.29100377 32.0524385 -35.33560181 32.03897095 C-27.0392274 32.13125848 -27.0392274 32.13125848 -20.07632446 28.24942017 C-18.56309907 26.32349382 -18.56309907 26.32349382 -17.20132446 24.12442017 C-16.6019104 23.30328735 -16.00249634 22.48215454 -15.38491821 21.63613892 C-11.38873084 15.87128406 -8.91275184 10.17437886 -6.92788696 3.46035767 C-5.64544636 -0.66275783 -4.06496234 0.00828451 0 0 Z " fill="#2FA8DA" transform="translate(157.20132446289063,367.8755798339844)"/>
<path d="M0 0 C1.06293274 -0.00137466 2.12586548 -0.00274933 3.2210083 -0.00416565 C4.97751205 0.00122726 4.97751205 0.00122726 6.76950073 0.00672913 C7.99874268 0.0065831 9.22798462 0.00643707 10.49447632 0.00628662 C13.87030712 0.00686498 17.24607718 0.01188915 20.62189722 0.01886058 C24.14797443 0.02510093 27.6740524 0.02569846 31.20013428 0.02688599 C37.87952694 0.02999728 44.55890329 0.03820797 51.23828876 0.04823548 C58.84157395 0.05940285 66.44485991 0.06490864 74.04815125 0.06993091 C89.69079153 0.08039074 105.33341551 0.0979863 120.9760437 0.12025452 C121.96087138 1.88048299 122.94569906 3.64071147 123.93052673 5.40093994 C126.8326295 10.17334224 131.68250186 13.51615093 136.9760437 15.12025452 C136.9760437 15.45025452 136.9760437 15.78025452 136.9760437 16.12025452 C118.53067214 16.21365825 100.08534851 16.28421424 81.63978958 16.3275032 C73.07536162 16.34813647 64.51108053 16.37627155 55.94674683 16.42201233 C48.482856 16.46185684 41.01907153 16.48768177 33.55507731 16.4966085 C29.6021793 16.50182734 25.64958555 16.51410901 21.69678497 16.54317474 C17.97690301 16.5703064 14.25745091 16.57870424 10.5374794 16.57268524 C8.52000704 16.57431197 6.50258159 16.59584654 4.48522949 16.61793518 C3.28492096 16.61243652 2.08461243 16.60693787 0.84793091 16.60127258 C-0.71727358 16.60680334 -0.71727358 16.60680334 -2.31409836 16.61244583 C-5.72966516 15.99207666 -6.88589421 14.79772715 -9.0239563 12.12025452 C-10.40144684 8.63061181 -10.13510459 7.39547886 -8.7114563 3.87025452 C-6.21020889 -0.20585237 -4.53233477 -0.0045053 0 0 Z " fill="#33B8EE" transform="translate(121.02395629882813,399.87974548339844)"/>
<path d="M0 0 C4.23848364 0.88301743 5.42854262 2.11730128 8 5.625 C8.73290616 9.59258571 8.652778 13.50675896 8.59375 17.53125 C8.59379028 18.68870728 8.59383057 19.84616455 8.59387207 21.03869629 C8.58851653 23.48304684 8.57093268 25.92739694 8.54199219 28.37158203 C8.50015061 32.11153833 8.50092365 35.84969293 8.5078125 39.58984375 C8.49731945 41.96615834 8.48438074 44.34246365 8.46875 46.71875 C8.46854858 47.8365686 8.46834717 48.95438721 8.46813965 50.1060791 C8.44427185 51.67295471 8.44427185 51.67295471 8.41992188 53.27148438 C8.41150269 54.1868396 8.4030835 55.10219482 8.39440918 56.04528809 C7.91780862 59.16258911 6.82639944 61.07499369 5 63.625 C3.1328125 64.5078125 3.1328125 64.5078125 1.125 64.75 C0.46757812 64.85570312 -0.18984375 64.96140625 -0.8671875 65.0703125 C-3.50214686 64.52015615 -5.06607084 63.40435504 -6.91744995 61.46969604 C-9.35145953 57.32207456 -8.70549652 52.16567685 -8.6640625 47.5 C-8.66884613 46.32034668 -8.67362976 45.14069336 -8.67855835 43.92529297 C-8.68195727 41.43390569 -8.67275565 38.94247381 -8.65185547 36.45117188 C-8.62509343 32.63831101 -8.65160743 28.82839432 -8.68359375 25.015625 C-8.68028966 22.5937435 -8.67388344 20.17186384 -8.6640625 17.75 C-8.67418365 16.61030762 -8.68430481 15.47061523 -8.69473267 14.29638672 C-8.57805975 6.41541067 -8.57805975 6.41541067 -5.64599609 2.40625 C-3 0.625 -3 0.625 0 0 Z " fill="#C8D4D9" transform="translate(280,255.375)"/>
<path d="M0 0 C4.24023442 0.88338217 5.42995599 2.11354206 8 5.625 C8.72222543 9.60561042 8.62890532 13.53123977 8.55859375 17.56640625 C8.55509666 19.30614967 8.55509666 19.30614967 8.55152893 21.08103943 C8.54179691 23.5296058 8.52002269 25.97814983 8.48706055 28.42651367 C8.43763495 32.17725905 8.42557807 35.92669266 8.41992188 39.67773438 C8.40583636 42.05730564 8.38963213 44.43686551 8.37109375 46.81640625 C8.36573105 47.93938614 8.36036835 49.06236603 8.35484314 50.21937561 C8.33885574 51.26403488 8.32286835 52.30869415 8.30639648 53.38500977 C8.29043678 54.76137352 8.29043678 54.76137352 8.27415466 56.1655426 C7.98308221 58.77677051 7.37658847 60.40164903 6 62.625 C3.32366974 64.7065902 1.88246332 64.62087591 -1.5625 64.5 C-5 63.625 -5 63.625 -6.68859863 61.90354919 C-8.26724582 59.16066256 -8.39153691 57.44667694 -8.41992188 54.29321289 C-8.43583374 53.22853287 -8.45174561 52.16385284 -8.46813965 51.06690979 C-8.46834106 49.92205612 -8.46854248 48.77720245 -8.46875 47.59765625 C-8.47636353 46.41658798 -8.48397705 45.23551971 -8.49182129 44.0186615 C-8.50262514 41.52133295 -8.50547426 39.0239592 -8.50097656 36.52661133 C-8.50000448 32.70512569 -8.54162237 28.88564872 -8.5859375 25.06445312 C-8.59114458 22.63802502 -8.59383269 20.21158994 -8.59375 17.78515625 C-8.61014526 16.64232681 -8.62654053 15.49949738 -8.64343262 14.32203674 C-8.57450698 6.41255929 -8.57450698 6.41255929 -5.65039062 2.40405273 C-3 0.625 -3 0.625 0 0 Z " fill="#C8D4D9" transform="translate(56,207.375)"/>
<path d="M0 0 C1.40572266 -0.01063477 1.40572266 -0.01063477 2.83984375 -0.02148438 C7.81339024 0.02437102 11.5216563 0.10319145 15.5 3.4375 C16.90457737 6.24665474 16.74895157 8.32560534 16.5 11.4375 C14.72015595 14.5734157 13.97691793 15.27852736 10.5 16.4375 C6.85892203 16.71811885 3.21320024 16.7149196 -0.4375 16.75 C-1.43974609 16.77900391 -2.44199219 16.80800781 -3.47460938 16.83789062 C-10.80356203 16.90145059 -10.80356203 16.90145059 -14.15625 14.66796875 C-15.5460922 12.3609923 -16.06771865 11.10944843 -16.0625 8.4375 C-16.08441406 7.7775 -16.10632813 7.1175 -16.12890625 6.4375 C-13.81285506 -0.9278305 -6.29752254 -0.1342663 0 0 Z " fill="#D8E8EE" transform="translate(191.5,319.5625)"/>
<path d="M0 0 C4.20227546 0.87547405 5.42604064 2.17880192 8 5.625 C8.74073147 9.30536864 8.69848177 12.88232864 8.625 16.625 C8.65400391 18.10226563 8.65400391 18.10226563 8.68359375 19.609375 C8.65122384 24.40012201 8.57748466 26.85182286 5.6484375 30.7734375 C3 32.625 3 32.625 0 33.25 C-4.20227546 32.37452595 -5.42604064 31.07119808 -8 27.625 C-8.74073147 23.94463136 -8.69848177 20.36767136 -8.625 16.625 C-8.64433594 15.64015625 -8.66367187 14.6553125 -8.68359375 13.640625 C-8.65122384 8.84987799 -8.57748466 6.39817714 -5.6484375 2.4765625 C-3 0.625 -3 0.625 0 0 Z " fill="#C8D4D9" transform="translate(280,207.375)"/>
<path d="M0 0 C4.20227546 0.87547405 5.42604064 2.17880192 8 5.625 C8.74073147 9.30536864 8.69848177 12.88232864 8.625 16.625 C8.65400391 18.10226563 8.65400391 18.10226563 8.68359375 19.609375 C8.65122384 24.40012201 8.57748466 26.85182286 5.6484375 30.7734375 C3 32.625 3 32.625 0 33.25 C-4.20227546 32.37452595 -5.42604064 31.07119808 -8 27.625 C-8.74073147 23.94463136 -8.69848177 20.36767136 -8.625 16.625 C-8.64433594 15.64015625 -8.66367187 14.6553125 -8.68359375 13.640625 C-8.65122384 8.84987799 -8.57748466 6.39817714 -5.6484375 2.4765625 C-3 0.625 -3 0.625 0 0 Z " fill="#C8D4D9" transform="translate(56,159.375)"/>
<path d="M0 0 C1.47726562 -0.02900391 1.47726562 -0.02900391 2.984375 -0.05859375 C7.73809046 -0.02647405 10.24183992 0.08172946 14.18359375 2.90625 C16.01811952 5.65212083 16.61767934 6.56863523 16.0625 9.75 C15.97097656 10.41257812 15.87945312 11.07515625 15.78515625 11.7578125 C14.70386934 14.32923112 13.35469896 15.15654902 11 16.625 C7.37707765 17.26040598 3.73539784 17.1345338 0.0625 17.125 C-0.92685547 17.15335937 -1.91621094 17.18171875 -2.93554688 17.2109375 C-7.74995632 17.22388816 -10.20118005 17.21891818 -14.15234375 14.28125 C-16 11.625 -16 11.625 -16.625 8.625 C-14.75456808 -0.3530732 -7.60103253 -0.14923493 0 0 Z " fill="#DBE6EB" transform="translate(336,367.375)"/>
</svg>
